<svg width="240" height="20" viewBox="0 0 240 20" fill="none" xmlns="http://www.w3.org/2000/svg">
<path fill-rule="evenodd" clip-rule="evenodd" d="M16.4082 4.82597C16.0268 4.03508 15.7604 3.43947 15.4779 3.04139C15.0942 2.50077 14.5721 2.06341 13.9013 1.7426C13.5323 1.56964 12.8888 1.47234 11.9583 1.47234H10.3213V15.9967C10.3213 17.006 10.3868 17.6354 10.496 17.8884C10.6194 18.1741 10.8531 18.4275 11.2167 18.6418C11.2472 18.66 11.2787 18.6775 11.3112 18.6942L5.13803 18.8199C5.30706 18.769 5.45918 18.7035 5.59436 18.6246C5.87567 18.4676 6.10383 18.2104 6.267 17.8383C6.37094 17.6074 6.43811 16.9989 6.43811 16.0021V1.47234H4.80108C3.44577 1.47234 2.47431 1.77596 1.86712 2.33689C1.25004 2.90394 0.796642 3.64621 0.510759 4.56728L0.356628 0.967773H16.4082V4.82597Z" fill="white" stroke="#F2F2F2" stroke-width="0.571176"/>
<path fill-rule="evenodd" clip-rule="evenodd" d="M26.0157 18.6889L19.8459 18.8145C20.0157 18.7636 20.1685 18.6982 20.3034 18.6194C20.5866 18.4614 20.8159 18.2022 20.9685 17.8259C21.0707 17.5897 21.1418 16.9834 21.1418 15.9969V3.82317C21.1418 2.81561 21.0759 2.18639 20.9671 1.93707C20.8492 1.65244 20.6103 1.39869 20.2498 1.18237C20.2194 1.16444 20.188 1.14728 20.1558 1.13088L26.3196 1.00537C26.1506 1.05628 25.9985 1.12178 25.8633 1.20066C25.582 1.35767 25.3538 1.61489 25.1907 1.98694C25.0867 2.21786 25.0195 2.83203 25.0195 3.82857V9.36315H32.0722V3.82857C32.0722 2.82064 32.0063 2.19133 31.8975 1.9422C31.7792 1.657 31.5401 1.40236 31.1675 1.18666C31.1374 1.16922 31.1064 1.15251 31.0745 1.13653L37.2534 1.01071C37.0825 1.06223 36.9294 1.12876 36.7937 1.2091C36.515 1.36631 36.2831 1.62307 36.1211 1.99234C36.0172 2.22327 35.9446 2.83753 35.9446 3.83398V16.0023C35.9446 17.0085 36.0086 17.6367 36.1118 17.889C36.2293 18.1763 36.4691 18.4327 36.8439 18.6497C36.874 18.6671 36.905 18.6838 36.9369 18.6998L30.758 18.8256C30.929 18.7741 31.082 18.7076 31.2177 18.6272C31.4964 18.47 31.7284 18.2133 31.8903 17.844C31.9942 17.613 32.0668 17.0044 32.0668 16.0077V9.98124H25.0195V15.9915C25.0195 17.0007 25.0905 17.6302 25.1997 17.8832C25.3231 18.1689 25.5568 18.4223 25.9224 18.6377C25.9526 18.6555 25.9837 18.6726 26.0157 18.6889Z" fill="white" stroke="#F2F2F2" stroke-width="0.571176"/>
<path fill-rule="evenodd" clip-rule="evenodd" d="M55.6538 18.8519H41.4165C41.634 18.7976 41.826 18.7211 41.9914 18.6246C42.2746 18.4666 42.5039 18.2073 42.6564 17.8311C42.7586 17.5948 42.8297 16.9885 42.8297 16.0021V3.82293C42.8297 2.94678 42.8017 2.41095 42.7509 2.20762C42.6368 1.81101 42.431 1.51832 42.1419 1.3128C42.0541 1.24733 41.9589 1.1887 41.856 1.13722L55.0972 0.967773V5.151C54.7143 4.2347 54.391 3.54976 54.0077 3.08892C53.4942 2.47166 52.77 2.01708 51.8361 1.72886C51.3073 1.56185 50.3173 1.47234 48.8635 1.47234H46.7075V9.51969H47.3607C48.6478 9.51969 49.572 9.09994 50.1499 8.29207C50.4946 7.81021 50.7636 7.18897 50.9543 6.42508L51.0945 13.3693C50.8961 12.7835 50.7159 12.2742 50.4895 11.8422C50.1036 11.1061 49.6513 10.6169 49.1425 10.3625C48.5993 10.0909 47.7873 9.96201 46.7075 9.99023V15.4669C46.7075 16.541 46.7647 17.1942 46.8559 17.4336C46.9636 17.7161 47.1618 17.9483 47.4545 18.1321C47.7236 18.2972 48.148 18.3905 48.7445 18.3905H49.8473C51.646 18.3905 53.0798 17.9652 54.1617 17.1424C54.9973 16.5027 55.6557 15.6065 56.1303 14.4438L55.6538 18.8519Z" fill="white" stroke="#F2F2F2" stroke-width="0.571176"/>
<path fill-rule="evenodd" clip-rule="evenodd" d="M67.0944 18.8155C67.2655 18.7645 67.4193 18.6987 67.5552 18.6194C67.8384 18.4614 68.0677 18.2022 68.2202 17.8259C68.3224 17.5897 68.3935 16.9834 68.3935 15.9969V3.82317C68.3935 2.81518 68.3276 2.18585 68.2188 1.93674C68.1006 1.65163 67.8672 1.39786 67.5015 1.18237C67.4711 1.16444 67.4398 1.14728 67.4075 1.13088L73.5714 1.00537C73.4023 1.05628 73.2502 1.12178 73.115 1.20066C72.8337 1.35767 72.6056 1.61489 72.4424 1.98694C72.3385 2.21786 72.2713 2.83203 72.2713 3.82857V15.9969C72.2713 17.0061 72.3422 17.6357 72.4515 17.8887C72.5748 18.1743 72.8085 18.4277 73.1741 18.6431C73.2038 18.6606 73.2343 18.6774 73.2658 18.6934L67.0944 18.8155Z" fill="white" stroke="#F2F2F2" stroke-width="0.571176"/>
<path fill-rule="evenodd" clip-rule="evenodd" d="M83.9356 18.6887L77.7805 18.8156C77.9374 18.7699 78.0664 18.7246 78.1678 18.673C78.5387 18.4843 78.7944 18.2271 78.9436 17.9224C79.0762 17.6514 79.1564 16.9868 79.1564 15.9102V3.90402C79.1564 2.83771 79.073 2.16881 78.9446 1.88859C78.795 1.57645 78.5393 1.32423 78.1607 1.1349C78.152 1.1306 78.1432 1.12634 78.1343 1.12214L84.8766 0.967773C87.0764 0.967773 88.682 1.11221 89.7038 1.42086C90.6828 1.71151 91.4787 2.24637 92.0958 3.03174C92.7104 3.814 93.0186 4.72873 93.0186 5.77982C93.0186 7.05635 92.5588 8.11074 91.6378 8.94578C90.966 9.5481 89.9917 9.97471 88.716 10.2398L93.393 16.8469C94.0005 17.6739 94.4319 18.187 94.6905 18.3893C94.8291 18.4918 94.9741 18.5791 95.1258 18.6511L90.5004 18.8519L84.5594 10.4621H82.9207V15.9102C82.9207 16.9794 83 17.6492 83.1325 17.9256C83.2821 18.2378 83.5378 18.49 83.9164 18.6793C83.9227 18.6825 83.9291 18.6856 83.9356 18.6887ZM88.5213 8.33837C88.9016 7.69309 89.0976 6.86244 89.0976 5.83387C89.0976 4.33282 88.7292 3.24035 88.0334 2.52153C87.3363 1.80714 86.2159 1.4291 84.6604 1.4291H82.9207V10.0711H83.9793C85.2844 10.0711 86.2574 9.9477 86.9011 9.70702C87.5883 9.45227 88.1237 8.99715 88.5213 8.33837Z" fill="white" stroke="#F2F2F2" stroke-width="0.571176"/>
<path fill-rule="evenodd" clip-rule="evenodd" d="M104.246 18.6934L98.0748 18.8155C98.2459 18.7645 98.3997 18.6987 98.5356 18.6194C98.8188 18.4614 99.0481 18.2022 99.2006 17.8259C99.3028 17.5897 99.3739 16.9834 99.3739 15.9969V3.82317C99.3739 2.81518 99.308 2.18585 99.1992 1.93674C99.081 1.65163 98.8476 1.39786 98.4819 1.18237C98.4515 1.16444 98.4202 1.14728 98.3879 1.13088L104.552 1.00537C104.383 1.05628 104.231 1.12178 104.095 1.20066C103.814 1.35767 103.586 1.61489 103.423 1.98694C103.319 2.21786 103.252 2.83203 103.252 3.82857V15.9969C103.252 17.0061 103.323 17.6357 103.432 17.8887C103.555 18.1743 103.789 18.4277 104.155 18.6431C104.184 18.6606 104.215 18.6774 104.246 18.6934Z" fill="white" stroke="#F2F2F2" stroke-width="0.571176"/>
<path fill-rule="evenodd" clip-rule="evenodd" d="M119.566 0.932216L119.699 6.16463H119.673C119.372 4.66447 118.706 3.44741 117.682 2.51994C116.59 1.52536 115.405 1.03997 114.138 1.03997C113.124 1.03997 112.328 1.32013 111.74 1.85493C111.132 2.40806 110.836 3.04834 110.836 3.76356C110.836 4.22471 110.949 4.63594 111.165 4.99524C111.447 5.44889 111.897 5.89422 112.521 6.33863C112.953 6.63983 113.96 7.17808 115.532 7.94484C117.652 8.97858 119.083 9.9419 119.811 10.8588C120.506 11.7481 120.858 12.7653 120.858 13.9102C120.858 15.3647 120.282 16.6177 119.14 17.6623C117.985 18.7239 116.513 19.2466 114.738 19.2466C114.177 19.2466 113.647 19.1897 113.148 19.0754C112.641 18.9592 112.007 18.7418 111.24 18.4244C110.759 18.2282 110.366 18.133 110.051 18.133C109.763 18.133 109.459 18.236 109.137 18.4596C108.875 18.6412 108.656 18.903 108.478 19.2466H108.466V13.0366C108.903 14.8614 109.68 16.2675 110.791 17.2537C112.002 18.3276 113.299 18.8663 114.689 18.8663C115.794 18.8663 116.672 18.5596 117.325 17.9648C117.997 17.3529 118.332 16.6372 118.332 15.8292C118.332 15.3483 118.201 14.8788 117.943 14.4276C117.694 13.9934 117.314 13.5747 116.81 13.1869C116.325 12.8118 115.471 12.3245 114.241 11.7288C112.574 10.9192 111.379 10.2285 110.655 9.65843C109.952 9.10548 109.408 8.48632 109.031 7.804C108.659 7.13219 108.472 6.38897 108.472 5.57989C108.472 4.1954 108.984 3.01581 110.005 2.04024C111.034 1.0575 112.337 0.573242 113.9 0.573242C114.476 0.573242 115.035 0.645758 115.576 0.786144C115.989 0.890563 116.489 1.09025 117.084 1.37736C117.76 1.70323 118.229 1.849 118.5 1.849C118.83 1.849 119.081 1.7367 119.267 1.53581C119.365 1.42938 119.469 1.23037 119.566 0.932216Z" fill="white" stroke="#F2F2F2" stroke-width="0.571176"/>
<path fill-rule="evenodd" clip-rule="evenodd" d="M130.601 18.6889L124.431 18.8145C124.601 18.7636 124.754 18.6982 124.889 18.6194C125.172 18.4614 125.401 18.2022 125.554 17.8259C125.656 17.5897 125.727 16.9834 125.727 15.9969V3.82317C125.727 2.81561 125.661 2.18639 125.552 1.93707C125.434 1.65244 125.196 1.39869 124.835 1.18237C124.805 1.16448 124.773 1.14735 124.741 1.13099L130.91 1.00537C130.741 1.05628 130.589 1.12178 130.454 1.20066C130.173 1.35767 129.944 1.61489 129.781 1.98694C129.677 2.21786 129.61 2.83203 129.61 3.82857V9.36315H136.663V3.82857C136.663 2.82064 136.597 2.19133 136.488 1.9422C136.37 1.657 136.131 1.40236 135.758 1.18666C135.728 1.16922 135.697 1.15251 135.665 1.13653L141.844 1.01071C141.673 1.06223 141.52 1.12876 141.384 1.2091C141.106 1.36631 140.874 1.62307 140.712 1.99234C140.608 2.22327 140.535 2.83753 140.535 3.83398V16.0023C140.535 17.0085 140.599 17.6367 140.702 17.889C140.82 18.1763 141.06 18.4327 141.435 18.6497C141.465 18.6671 141.496 18.6838 141.528 18.6998L135.349 18.8256C135.52 18.7741 135.673 18.7076 135.808 18.6272C136.087 18.47 136.319 18.2133 136.481 17.844C136.585 17.613 136.657 17.0044 136.657 16.0077V9.98124H129.605V15.9915C129.605 17.0007 129.676 17.6302 129.785 17.8832C129.908 18.1689 130.142 18.4223 130.508 18.6377C130.538 18.6555 130.569 18.6726 130.601 18.6889Z" fill="white" stroke="#F2F2F2" stroke-width="0.571176"/>
<path fill-rule="evenodd" clip-rule="evenodd" d="M168.24 4.82597C167.858 4.03508 167.592 3.43947 167.31 3.04139C166.926 2.50077 166.404 2.06341 165.733 1.7426C165.364 1.56964 164.72 1.47234 163.79 1.47234H162.153V15.9967C162.153 17.0091 162.22 17.6397 162.333 17.8884C162.456 18.1741 162.69 18.4275 163.054 18.6418C163.084 18.6601 163.116 18.6776 163.148 18.6943L156.98 18.8199C157.149 18.769 157.302 18.7035 157.437 18.6246C157.718 18.4676 157.946 18.2104 158.109 17.8383C158.213 17.6074 158.281 16.9989 158.281 16.0021V1.47234H156.643C155.288 1.47234 154.317 1.77596 153.71 2.33689C153.092 2.90394 152.639 3.64621 152.353 4.56728L152.199 0.967773H168.24V4.82597Z" fill="white" stroke="#F2F2F2" stroke-width="0.571176"/>
<path fill-rule="evenodd" clip-rule="evenodd" d="M171.68 18.8155C171.851 18.7645 172.005 18.6987 172.14 18.6194C172.424 18.4614 172.653 18.2022 172.805 17.8259C172.908 17.5897 172.979 16.9834 172.979 15.9969V3.82317C172.979 2.81561 172.913 2.18639 172.804 1.93707C172.686 1.65244 172.447 1.39869 172.087 1.18237C172.056 1.16448 172.025 1.14735 171.993 1.13099L178.162 1.00537C177.993 1.05628 177.841 1.12178 177.706 1.20066C177.424 1.35767 177.196 1.61489 177.033 1.98694C176.929 2.21786 176.862 2.83203 176.862 3.82857V15.9969C176.862 17.0061 176.933 17.6357 177.042 17.8887C177.165 18.1743 177.399 18.4277 177.765 18.6431C177.794 18.6606 177.825 18.6773 177.856 18.6933L171.68 18.8155Z" fill="white" stroke="#F2F2F2" stroke-width="0.571176"/>
<path fill-rule="evenodd" clip-rule="evenodd" d="M204.671 0.967773C204.449 1.0231 204.255 1.10175 204.089 1.20184C203.815 1.35851 203.593 1.61482 203.428 1.98369C203.325 2.22008 203.253 2.82805 203.253 3.82293V15.9913C203.253 17.0006 203.318 17.63 203.425 17.8779C203.543 18.1652 203.783 18.4216 204.158 18.6386C204.188 18.6561 204.219 18.6728 204.251 18.6887L198.078 18.8144C198.249 18.7633 198.403 18.6973 198.539 18.6178C198.814 18.461 199.036 18.2046 199.199 17.8329C199.303 17.602 199.375 16.9934 199.375 15.9967V0.967773H204.671ZM199.342 0.967773L191.97 18.6298L184.26 1.07564L188.273 0.967773L193.646 13.5636L198.811 0.967773H199.342ZM184.252 1.07588V15.4399C184.252 16.3833 184.279 16.9664 184.329 17.1853C184.467 17.7124 184.757 18.1393 185.213 18.4658C185.339 18.5573 185.486 18.6366 185.654 18.7029L182.116 18.8142C182.199 18.7864 182.278 18.7582 182.357 18.7269C182.764 18.5641 183.073 18.3349 183.279 18.0601C183.476 17.797 183.636 17.4283 183.75 16.9492C183.771 16.8218 183.785 16.3424 183.785 15.4778V3.82293C183.785 2.81204 183.719 2.182 183.609 1.93442C183.486 1.65542 183.252 1.39622 182.88 1.18102C182.841 1.15818 182.8 1.13651 182.757 1.11605L184.252 1.07588Z" fill="white" stroke="#F2F2F2" stroke-width="0.571176"/>
<path fill-rule="evenodd" clip-rule="evenodd" d="M222.962 18.8519H208.719C208.937 18.7976 209.129 18.7211 209.294 18.6246C209.577 18.4666 209.807 18.2073 209.959 17.8311C210.061 17.5948 210.133 16.9885 210.133 16.0021V3.82293C210.133 2.95096 210.106 2.41734 210.061 2.21493C209.945 1.81101 209.739 1.51832 209.45 1.3128C209.362 1.24733 209.267 1.1887 209.164 1.13722L222.405 0.967773V5.151C222.023 4.2347 221.699 3.54976 221.316 3.08892C220.802 2.47166 220.078 2.01708 219.144 1.72886C218.616 1.56185 217.626 1.47234 216.172 1.47234H214.016V9.51969H214.669C215.956 9.51969 216.88 9.09994 217.458 8.29207C217.803 7.81021 218.072 7.18897 218.263 6.42508L218.403 13.3693C218.204 12.7835 218.024 12.2742 217.798 11.8422C217.412 11.1061 216.96 10.6169 216.451 10.3625C215.908 10.0909 215.096 9.96201 214.016 9.99023V15.4669C214.016 16.541 214.073 17.1942 214.164 17.4336C214.272 17.7161 214.47 17.9483 214.763 18.1321C215.032 18.2972 215.456 18.3905 216.053 18.3905H217.156C218.954 18.3905 220.388 17.9652 221.47 17.1424C222.306 16.5027 222.964 15.6065 223.439 14.4438L222.962 18.8519Z" fill="white" stroke="#F2F2F2" stroke-width="0.571176"/>
<path fill-rule="evenodd" clip-rule="evenodd" d="M238.076 0.916782L238.21 6.16463H238.183C237.882 4.66447 237.216 3.44741 236.192 2.51994C235.101 1.52536 233.916 1.03997 232.648 1.03997C231.635 1.03997 230.838 1.32013 230.251 1.85493C229.643 2.40806 229.346 3.04834 229.346 3.76356C229.346 4.22471 229.459 4.63594 229.676 4.99524C229.957 5.44889 230.408 5.89422 231.031 6.33863C231.464 6.63983 232.47 7.17808 234.042 7.94484C236.163 8.97858 237.594 9.9419 238.321 10.8588C239.016 11.7481 239.369 12.7653 239.369 13.9102C239.369 15.3647 238.792 16.6177 237.65 17.6623C236.495 18.7239 235.023 19.2466 233.249 19.2466C232.687 19.2466 232.157 19.1897 231.658 19.0754C231.151 18.9592 230.518 18.7418 229.751 18.4244C229.269 18.2282 228.876 18.133 228.562 18.133C228.274 18.133 227.97 18.236 227.648 18.4596C227.386 18.6412 227.167 18.903 226.988 19.2466H226.977V13.0366C227.413 14.8611 228.19 16.2672 229.296 17.2528C230.5 18.3327 231.803 18.8663 233.194 18.8663C234.299 18.8663 235.177 18.5596 235.83 17.9648C236.502 17.3529 236.837 16.6372 236.837 15.8292C236.837 15.3483 236.706 14.8788 236.448 14.4276C236.199 13.9934 235.819 13.5747 235.315 13.1869C234.83 12.8118 233.976 12.3245 232.746 11.7288C231.079 10.9192 229.884 10.2285 229.16 9.65843C228.457 9.10548 227.913 8.48632 227.536 7.804C227.164 7.13219 226.977 6.38897 226.977 5.57989C226.977 4.1954 227.489 3.01581 228.51 2.04024C229.539 1.0575 230.842 0.573242 232.405 0.573242C232.981 0.573242 233.54 0.645758 234.081 0.786144C234.494 0.890563 234.994 1.09025 235.589 1.37736C236.265 1.70335 236.735 1.849 237 1.849C237.327 1.849 237.576 1.73924 237.772 1.53581C237.872 1.42755 237.978 1.22351 238.076 0.916782Z" fill="white" stroke="#F2F2F2" stroke-width="0.571176"/>
</svg>
