<svg width="17" height="16" viewBox="0 0 17 16" fill="none" xmlns="http://www.w3.org/2000/svg">
<path d="M2.21997 4.125H15.22C15.4961 4.125 15.72 3.90116 15.72 3.625V2.375C15.72 2.09884 15.4961 1.875 15.22 1.875H2.21997C1.94381 1.875 1.71997 2.09884 1.71997 2.375V3.625C1.71997 3.90116 1.94381 4.125 2.21997 4.125ZM2.21997 9.125H15.22C15.4961 9.125 15.72 8.90116 15.72 8.625V7.375C15.72 7.09884 15.4961 6.875 15.22 6.875H2.21997C1.94381 6.875 1.71997 7.09884 1.71997 7.375V8.625C1.71997 8.90116 1.94381 9.125 2.21997 9.125ZM2.21997 14.125H15.22C15.4961 14.125 15.72 13.9012 15.72 13.625V12.375C15.72 12.0988 15.4961 11.875 15.22 11.875H2.21997C1.94381 11.875 1.71997 12.0988 1.71997 12.375V13.625C1.71997 13.9012 1.94381 14.125 2.21997 14.125Z" fill="white"/>
</svg>
