<svg width="14" height="14" viewBox="0 0 14 14" fill="none" xmlns="http://www.w3.org/2000/svg">
<path d="M5.91147 6.44428C7.52988 6.44428 8.84186 5.1323 8.84186 3.51389C8.84186 1.89548 7.52988 0.583496 5.91147 0.583496C4.29306 0.583496 2.98108 1.89548 2.98108 3.51389C2.98108 5.1323 4.29306 6.44428 5.91147 6.44428Z" fill="white"/>
<path d="M6.6441 13.0376V7.17676H3.11663C1.82796 7.17676 0.783295 8.22145 0.783295 9.51009V11.8709C0.783295 12.5152 1.30563 13.0376 1.94996 13.0376H6.6441Z" fill="white"/>
<path fill-rule="evenodd" clip-rule="evenodd" d="M11.4811 12.8943C11.4444 12.942 11.3963 12.9779 11.3367 13.0017C11.2771 13.0256 11.2152 13.0376 11.151 13.0376C11.0227 13.0376 10.9127 12.9898 10.821 12.8943C10.7294 12.7987 10.6835 12.6841 10.6835 12.5504C10.6835 12.4835 10.6973 12.419 10.7247 12.3569C10.7523 12.2948 10.7844 12.2446 10.821 12.2064L12.3612 10.6016H8.59056C8.45307 10.6016 8.33844 10.5538 8.2468 10.4582C8.1551 10.3627 8.10925 10.2481 8.10925 10.1144C8.10925 9.98061 8.1551 9.86598 8.2468 9.77043C8.33844 9.67488 8.45307 9.62717 8.59056 9.62717H12.3612L10.821 8.00789C10.7844 7.96968 10.7523 7.91952 10.7247 7.85745C10.6973 7.79532 10.6835 7.73087 10.6835 7.66402C10.6835 7.53026 10.7294 7.41563 10.821 7.32008C10.9127 7.22453 11.0227 7.17676 11.151 7.17676C11.2152 7.17676 11.2771 7.19111 11.3367 7.21975C11.3963 7.24845 11.4444 7.28187 11.4811 7.32008L13.8326 9.77043C13.8692 9.80864 13.9013 9.85881 13.9288 9.92087C13.9563 9.983 13.9701 10.0475 13.9701 10.1144C13.9701 10.1812 13.9563 10.2433 13.9288 10.3006C13.9013 10.358 13.8692 10.4105 13.8326 10.4582L11.4811 12.8943Z" fill="white"/>
</svg>
